<?xml version="1.0" encoding="UTF-8"?>
<svg xmlns="http://www.w3.org/2000/svg" style="display:none">
<!-- Verdant Monolith icon set · 1.5px stroke · currentColor · 24x24 viewBox -->

<!-- ===== SPECIES ===== -->
<symbol id="cow" viewBox="0 0 24 24" fill="none" stroke="currentColor" stroke-width="1.5" stroke-linecap="round" stroke-linejoin="round">
  <path d="M5 12c0-3 2-5 4-5h6c2 0 4 2 4 5"/>
  <path d="M5 12v4c0 .5.5 1 1 1h12c.5 0 1-.5 1-1v-4"/>
  <path d="M7 17v3M9 17v2M15 17v2M17 17v3"/>
  <ellipse cx="9" cy="6" rx="1" ry="1.2"/>
  <ellipse cx="15" cy="6" rx="1" ry="1.2"/>
  <path d="M10.5 11h3"/>
  <circle cx="11" cy="9.5" r=".4" fill="currentColor"/>
  <circle cx="13" cy="9.5" r=".4" fill="currentColor"/>
</symbol>

<symbol id="pig" viewBox="0 0 24 24" fill="none" stroke="currentColor" stroke-width="1.5" stroke-linecap="round" stroke-linejoin="round">
  <path d="M4 13c0-3 3-5 6-5h4c3 0 6 2 6 5v3c0 .5-.5 1-1 1h-1.5l-.5 2h-2l-.5-1h-5l-.5 1h-2l-.5-2H5c-.5 0-1-.5-1-1z"/>
  <ellipse cx="12" cy="11.5" rx="2" ry="1.5"/>
  <circle cx="11" cy="11.5" r=".4" fill="currentColor"/>
  <circle cx="13" cy="11.5" r=".4" fill="currentColor"/>
  <path d="M7 8.5L6 6.5M17 8.5L18 6.5"/>
  <path d="M9 14.5l.3 1M15 14.5l-.3 1"/>
</symbol>

<symbol id="sheep" viewBox="0 0 24 24" fill="none" stroke="currentColor" stroke-width="1.5" stroke-linecap="round" stroke-linejoin="round">
  <circle cx="9" cy="11" r="3"/>
  <circle cx="13" cy="9" r="2.5"/>
  <circle cx="15" cy="12" r="3"/>
  <circle cx="11" cy="13" r="3"/>
  <ellipse cx="17.5" cy="11" rx="1.5" ry="1.8"/>
  <circle cx="17" cy="11" r=".4" fill="currentColor"/>
  <path d="M8 17v2M11 17v2M14 17v2"/>
</symbol>

<symbol id="deer" viewBox="0 0 24 24" fill="none" stroke="currentColor" stroke-width="1.5" stroke-linecap="round" stroke-linejoin="round">
  <path d="M8 3l1 3 2-1 1 2 1-2 2 1 1-3"/>
  <path d="M9 3l-1.5 4M15 3l1.5 4"/>
  <ellipse cx="12" cy="11" rx="2" ry="3"/>
  <circle cx="11" cy="10" r=".4" fill="currentColor"/>
  <path d="M12 14v3M9 17l3-3 3 3"/>
  <path d="M9 17v3M15 17v3"/>
</symbol>

<symbol id="rooster" viewBox="0 0 24 24" fill="none" stroke="currentColor" stroke-width="1.5" stroke-linecap="round" stroke-linejoin="round">
  <path d="M9 5l-2 1 1 2-1.5 1.5L8 11l-1 2 2 1"/>
  <path d="M9 14c0-3 2-5 5-5 2 0 4 1 4 4 0 4-3 5-5 5h-3l-1-2"/>
  <path d="M14 9l1-2"/>
  <circle cx="15" cy="11" r=".4" fill="currentColor"/>
  <path d="M17 13l3 1-3 1"/>
  <path d="M11 18v3M14 18v3"/>
</symbol>

<!-- ===== FOOD / COOKING ===== -->
<symbol id="steak" viewBox="0 0 24 24" fill="none" stroke="currentColor" stroke-width="1.5" stroke-linecap="round" stroke-linejoin="round">
  <path d="M5 9C5 6 7 4 11 4c5 0 8 3 8 7 0 4-3 9-8 9-4 0-6-3-6-6 0-2 1-3 1-5z"/>
  <path d="M9 9c1 0 2 1 2 2.5S10 14 9 14"/>
</symbol>

<symbol id="flame" viewBox="0 0 24 24" fill="none" stroke="currentColor" stroke-width="1.5" stroke-linecap="round" stroke-linejoin="round">
  <path d="M12 3c0 4-4 5-4 9a4 4 0 0 0 8 0c0-2-1-3-2-4 0 2-1 3-2 3 0-3 0-5 0-8z"/>
</symbol>

<symbol id="burger" viewBox="0 0 24 24" fill="none" stroke="currentColor" stroke-width="1.5" stroke-linecap="round" stroke-linejoin="round">
  <path d="M4 9c0-3 4-5 8-5s8 2 8 5"/>
  <path d="M4 11h16M4 15h16"/>
  <path d="M4 17c0 1 1 2 2 2h12c1 0 2-1 2-2"/>
  <circle cx="9" cy="7" r=".4" fill="currentColor"/>
  <circle cx="13" cy="7" r=".4" fill="currentColor"/>
  <circle cx="11" cy="6" r=".4" fill="currentColor"/>
</symbol>

<symbol id="chef-hat" viewBox="0 0 24 24" fill="none" stroke="currentColor" stroke-width="1.5" stroke-linecap="round" stroke-linejoin="round">
  <path d="M6 14c-1.5-.5-2-2-2-3.5C4 8 6 6 9 6.5 9.5 4.5 11 3.5 12 3.5s2.5 1 3 3c3-.5 5 1.5 5 4 0 1.5-.5 3-2 3.5"/>
  <path d="M6 14h12v5c0 .5-.5 1-1 1H7c-.5 0-1-.5-1-1z"/>
  <path d="M9 14v6M12 14v6M15 14v6"/>
</symbol>

<symbol id="star" viewBox="0 0 24 24" fill="none" stroke="currentColor" stroke-width="1.5" stroke-linecap="round" stroke-linejoin="round">
  <polygon points="12 3 14.5 9 21 9.5 16 14 17.5 20.5 12 17 6.5 20.5 8 14 3 9.5 9.5 9"/>
</symbol>

<!-- ===== STATUS / ACTIONS ===== -->
<symbol id="lightbulb" viewBox="0 0 24 24" fill="none" stroke="currentColor" stroke-width="1.5" stroke-linecap="round" stroke-linejoin="round">
  <path d="M9 17h6"/>
  <path d="M10 20h4"/>
  <path d="M9 14c-1.5-1-2-2.5-2-4 0-2.5 2-4.5 5-4.5s5 2 5 4.5c0 1.5-.5 3-2 4"/>
  <path d="M10 14h4v3h-4z"/>
</symbol>

<symbol id="sparkles" viewBox="0 0 24 24" fill="none" stroke="currentColor" stroke-width="1.5" stroke-linecap="round" stroke-linejoin="round">
  <path d="M12 4l1.5 4 4 1.5-4 1.5L12 15l-1.5-4-4-1.5 4-1.5z"/>
  <path d="M19 14l.7 2 2 .7-2 .7L19 19.5l-.7-2-2-.7 2-.7z"/>
  <path d="M5 16l.5 1.5 1.5.5-1.5.5L5 20l-.5-1.5-1.5-.5 1.5-.5z"/>
</symbol>

<symbol id="check" viewBox="0 0 24 24" fill="none" stroke="currentColor" stroke-width="2" stroke-linecap="round" stroke-linejoin="round">
  <polyline points="5 12 10 17 19 7"/>
</symbol>

<symbol id="check-shield" viewBox="0 0 24 24" fill="none" stroke="currentColor" stroke-width="1.5" stroke-linecap="round" stroke-linejoin="round">
  <path d="M12 3l8 3v5c0 5-3.5 9-8 10-4.5-1-8-5-8-10V6z"/>
  <polyline points="9 12 11.5 14.5 16 10"/>
</symbol>

<symbol id="alert" viewBox="0 0 24 24" fill="none" stroke="currentColor" stroke-width="1.5" stroke-linecap="round" stroke-linejoin="round">
  <path d="M12 4l9.5 16h-19z"/>
  <line x1="12" y1="10" x2="12" y2="14"/>
  <circle cx="12" cy="17" r=".5" fill="currentColor"/>
</symbol>

<symbol id="info" viewBox="0 0 24 24" fill="none" stroke="currentColor" stroke-width="1.5" stroke-linecap="round" stroke-linejoin="round">
  <circle cx="12" cy="12" r="9"/>
  <line x1="12" y1="11" x2="12" y2="16"/>
  <circle cx="12" cy="8" r=".5" fill="currentColor"/>
</symbol>

<symbol id="hourglass" viewBox="0 0 24 24" fill="none" stroke="currentColor" stroke-width="1.5" stroke-linecap="round" stroke-linejoin="round">
  <path d="M7 4h10M7 20h10"/>
  <path d="M7 4c0 4 5 4 5 8s-5 4-5 8"/>
  <path d="M17 4c0 4-5 4-5 8s5 4 5 8"/>
</symbol>

<symbol id="clock" viewBox="0 0 24 24" fill="none" stroke="currentColor" stroke-width="1.5" stroke-linecap="round" stroke-linejoin="round">
  <circle cx="12" cy="12" r="9"/>
  <polyline points="12 7 12 12 16 14"/>
</symbol>

<!-- ===== AGRICULTURE / NATURE ===== -->
<symbol id="leaf" viewBox="0 0 24 24" fill="none" stroke="currentColor" stroke-width="1.5" stroke-linecap="round" stroke-linejoin="round">
  <path d="M5 19c0-7 5-12 14-13-1 9-6 14-13 14"/>
  <path d="M5 19c2-3 5-6 9-9"/>
</symbol>

<symbol id="seedling" viewBox="0 0 24 24" fill="none" stroke="currentColor" stroke-width="1.5" stroke-linecap="round" stroke-linejoin="round">
  <path d="M12 21v-9"/>
  <path d="M12 12c-3 0-5-2-5-5 3 0 5 2 5 5z"/>
  <path d="M12 12c3 0 5-2 5-5-3 0-5 2-5 5z"/>
  <path d="M5 21h14"/>
</symbol>

<symbol id="wheat" viewBox="0 0 24 24" fill="none" stroke="currentColor" stroke-width="1.5" stroke-linecap="round" stroke-linejoin="round">
  <path d="M12 21V8"/>
  <path d="M12 8c0-1.5 1-3 2-3s2 1.5 1 3"/>
  <path d="M12 11c1-1 3-1 4 0M12 11c-1-1-3-1-4 0"/>
  <path d="M12 14c1-1 3-1 4 0M12 14c-1-1-3-1-4 0"/>
  <path d="M12 17c1-1 3-1 4 0M12 17c-1-1-3-1-4 0"/>
</symbol>

<symbol id="tree" viewBox="0 0 24 24" fill="none" stroke="currentColor" stroke-width="1.5" stroke-linecap="round" stroke-linejoin="round">
  <path d="M12 3l-5 6h3l-4 5h3l-3 4h12l-3-4h3l-4-5h3z"/>
  <path d="M12 18v3"/>
</symbol>

<symbol id="globe" viewBox="0 0 24 24" fill="none" stroke="currentColor" stroke-width="1.5" stroke-linecap="round" stroke-linejoin="round">
  <circle cx="12" cy="12" r="9"/>
  <path d="M3 12h18"/>
  <path d="M12 3a13 13 0 0 1 0 18M12 3a13 13 0 0 0 0 18"/>
</symbol>

<symbol id="droplet" viewBox="0 0 24 24" fill="none" stroke="currentColor" stroke-width="1.5" stroke-linecap="round" stroke-linejoin="round">
  <path d="M12 3c-3 5-7 8-7 12a7 7 0 0 0 14 0c0-4-4-7-7-12z"/>
</symbol>

<symbol id="sun" viewBox="0 0 24 24" fill="none" stroke="currentColor" stroke-width="1.5" stroke-linecap="round" stroke-linejoin="round">
  <circle cx="12" cy="12" r="4"/>
  <line x1="12" y1="3" x2="12" y2="5"/>
  <line x1="12" y1="19" x2="12" y2="21"/>
  <line x1="3" y1="12" x2="5" y2="12"/>
  <line x1="19" y1="12" x2="21" y2="12"/>
  <line x1="5.6" y1="5.6" x2="7" y2="7"/>
  <line x1="17" y1="17" x2="18.4" y2="18.4"/>
  <line x1="5.6" y1="18.4" x2="7" y2="17"/>
  <line x1="17" y1="7" x2="18.4" y2="5.6"/>
</symbol>

<symbol id="bee" viewBox="0 0 24 24" fill="none" stroke="currentColor" stroke-width="1.5" stroke-linecap="round" stroke-linejoin="round">
  <ellipse cx="12" cy="13" rx="4" ry="5"/>
  <path d="M9 11h6M9 14h6"/>
  <ellipse cx="9" cy="9" rx="3" ry="2"/>
  <ellipse cx="15" cy="9" rx="3" ry="2"/>
  <circle cx="11" cy="12" r=".4" fill="currentColor"/>
</symbol>

<symbol id="mountain" viewBox="0 0 24 24" fill="none" stroke="currentColor" stroke-width="1.5" stroke-linecap="round" stroke-linejoin="round">
  <path d="M3 19l6-9 4 5 3-4 5 8z"/>
  <path d="M9 10l-1.5 2.5L8 13"/>
</symbol>

<!-- ===== CERTIFICATIONS / IDENTITY ===== -->
<symbol id="medal" viewBox="0 0 24 24" fill="none" stroke="currentColor" stroke-width="1.5" stroke-linecap="round" stroke-linejoin="round">
  <path d="M8 3l4 8M16 3l-4 8"/>
  <circle cx="12" cy="15" r="6"/>
  <polyline points="9.5 15 11 16.5 14.5 13"/>
</symbol>

<symbol id="ribbon" viewBox="0 0 24 24" fill="none" stroke="currentColor" stroke-width="1.5" stroke-linecap="round" stroke-linejoin="round">
  <circle cx="12" cy="9" r="6"/>
  <polyline points="9 12 11 14 15 9"/>
  <path d="M9 14l-3 7 3-1 1 2 2-5"/>
  <path d="M15 14l3 7-3-1-1 2-2-5"/>
</symbol>

<symbol id="flag-us" viewBox="0 0 24 24" fill="none" stroke="currentColor" stroke-width="1.5" stroke-linecap="round" stroke-linejoin="round">
  <line x1="5" y1="3" x2="5" y2="21"/>
  <path d="M5 4h14v10H5z"/>
  <path d="M5 6h14M5 8h14M5 10h14M5 12h14"/>
  <rect x="5" y="4" width="6" height="6"/>
</symbol>

<symbol id="building" viewBox="0 0 24 24" fill="none" stroke="currentColor" stroke-width="1.5" stroke-linecap="round" stroke-linejoin="round">
  <path d="M3 21h18"/>
  <path d="M5 21V9l7-5 7 5v12"/>
  <path d="M9 21v-6h6v6"/>
  <line x1="9" y1="11" x2="11" y2="11"/>
  <line x1="13" y1="11" x2="15" y2="11"/>
</symbol>

<symbol id="tractor" viewBox="0 0 24 24" fill="none" stroke="currentColor" stroke-width="1.5" stroke-linecap="round" stroke-linejoin="round">
  <circle cx="7" cy="17" r="3"/>
  <circle cx="17" cy="17" r="2"/>
  <path d="M3 14h7l1-5h6l1 5h2"/>
  <path d="M11 9v-3h4v3"/>
</symbol>

<symbol id="clipboard" viewBox="0 0 24 24" fill="none" stroke="currentColor" stroke-width="1.5" stroke-linecap="round" stroke-linejoin="round">
  <rect x="6" y="5" width="12" height="16" rx="2"/>
  <rect x="9" y="3" width="6" height="4" rx="1"/>
  <line x1="9" y1="11" x2="15" y2="11"/>
  <line x1="9" y1="14" x2="15" y2="14"/>
  <line x1="9" y1="17" x2="13" y2="17"/>
</symbol>

<symbol id="moon-star" viewBox="0 0 24 24" fill="none" stroke="currentColor" stroke-width="1.5" stroke-linecap="round" stroke-linejoin="round">
  <path d="M16 3a8 8 0 0 0 5 8 8 8 0 1 1-5-8z"/>
  <polygon points="18 7 19 9 21 9.5 19.5 11 20 13 18 12 16 13 16.5 11 15 9.5 17 9"/>
</symbol>

<symbol id="star-david" viewBox="0 0 24 24" fill="none" stroke="currentColor" stroke-width="1.5" stroke-linecap="round" stroke-linejoin="round">
  <polygon points="12 3 17 12 7 12"/>
  <polygon points="12 21 7 12 17 12"/>
</symbol>

<symbol id="person" viewBox="0 0 24 24" fill="none" stroke="currentColor" stroke-width="1.5" stroke-linecap="round" stroke-linejoin="round">
  <circle cx="12" cy="7" r="3.5"/>
  <path d="M5 21c0-4 3-7 7-7s7 3 7 7"/>
</symbol>

<symbol id="users" viewBox="0 0 24 24" fill="none" stroke="currentColor" stroke-width="1.5" stroke-linecap="round" stroke-linejoin="round">
  <circle cx="9" cy="8" r="3"/>
  <path d="M3 19c0-3 2.5-5 6-5s6 2 6 5"/>
  <circle cx="17" cy="9" r="2.5"/>
  <path d="M16 14c2 0 5 1.5 5 4"/>
</symbol>

<symbol id="house" viewBox="0 0 24 24" fill="none" stroke="currentColor" stroke-width="1.5" stroke-linecap="round" stroke-linejoin="round">
  <path d="M3 12l9-8 9 8"/>
  <path d="M5 10v10h14V10"/>
  <path d="M10 20v-6h4v6"/>
</symbol>

<symbol id="handshake" viewBox="0 0 24 24" fill="none" stroke="currentColor" stroke-width="1.5" stroke-linecap="round" stroke-linejoin="round">
  <path d="M3 11l4-4 5 5-2 2c-1 1-3 1-4 0z"/>
  <path d="M21 11l-4-4-5 5 2 2c1 1 3 1 4 0z"/>
  <path d="M12 12l-2 2c-1 1-1 2 0 3l1 1c1 1 2 1 3 0l2-2"/>
</symbol>

<symbol id="medal-military" viewBox="0 0 24 24" fill="none" stroke="currentColor" stroke-width="1.5" stroke-linecap="round" stroke-linejoin="round">
  <polygon points="9 3 15 3 13 8 11 8"/>
  <circle cx="12" cy="14" r="6"/>
  <polygon points="9 14 11 12 12 13 13 12 15 14 14 16 12 15 10 16"/>
</symbol>

<symbol id="rainbow" viewBox="0 0 24 24" fill="none" stroke="currentColor" stroke-width="1.5" stroke-linecap="round" stroke-linejoin="round">
  <path d="M3 18a9 9 0 0 1 18 0"/>
  <path d="M5 18a7 7 0 0 1 14 0"/>
  <path d="M7 18a5 5 0 0 1 10 0"/>
  <path d="M9 18a3 3 0 0 1 6 0"/>
</symbol>

<symbol id="accessibility" viewBox="0 0 24 24" fill="none" stroke="currentColor" stroke-width="1.5" stroke-linecap="round" stroke-linejoin="round">
  <circle cx="12" cy="5" r="2"/>
  <path d="M9 10h6"/>
  <path d="M12 10v5l3 5h2"/>
  <circle cx="9" cy="17" r="3"/>
</symbol>

<!-- ===== CALENDAR / OPERATIONS ===== -->
<symbol id="calendar" viewBox="0 0 24 24" fill="none" stroke="currentColor" stroke-width="1.5" stroke-linecap="round" stroke-linejoin="round">
  <rect x="4" y="6" width="16" height="14" rx="2"/>
  <line x1="4" y1="10" x2="20" y2="10"/>
  <line x1="9" y1="3" x2="9" y2="6"/>
  <line x1="15" y1="3" x2="15" y2="6"/>
</symbol>

<symbol id="scale" viewBox="0 0 24 24" fill="none" stroke="currentColor" stroke-width="1.5" stroke-linecap="round" stroke-linejoin="round">
  <line x1="12" y1="4" x2="12" y2="21"/>
  <line x1="6" y1="21" x2="18" y2="21"/>
  <path d="M3 10l3-6 3 6c0 1.5-1.5 3-3 3s-3-1.5-3-3z"/>
  <path d="M15 10l3-6 3 6c0 1.5-1.5 3-3 3s-3-1.5-3-3z"/>
</symbol>

<symbol id="package" viewBox="0 0 24 24" fill="none" stroke="currentColor" stroke-width="1.5" stroke-linecap="round" stroke-linejoin="round">
  <path d="M3 8l9-5 9 5v8l-9 5-9-5z"/>
  <line x1="3" y1="8" x2="12" y2="13"/>
  <line x1="21" y1="8" x2="12" y2="13"/>
  <line x1="12" y1="13" x2="12" y2="21"/>
</symbol>

<symbol id="snowflake" viewBox="0 0 24 24" fill="none" stroke="currentColor" stroke-width="1.5" stroke-linecap="round" stroke-linejoin="round">
  <line x1="12" y1="3" x2="12" y2="21"/>
  <line x1="3" y1="12" x2="21" y2="12"/>
  <line x1="5" y1="5" x2="19" y2="19"/>
  <line x1="19" y1="5" x2="5" y2="19"/>
</symbol>

<symbol id="recycle" viewBox="0 0 24 24" fill="none" stroke="currentColor" stroke-width="1.5" stroke-linecap="round" stroke-linejoin="round">
  <path d="M7 8l-3 5 5 1"/>
  <path d="M4 13c2-5 6-7 10-6"/>
  <path d="M19 10l1 5-5 1"/>
  <path d="M20 15c-2 4-6 6-10 5"/>
  <path d="M11 21l3-3-3-3"/>
</symbol>

<symbol id="heart" viewBox="0 0 24 24" fill="none" stroke="currentColor" stroke-width="1.5" stroke-linecap="round" stroke-linejoin="round">
  <path d="M12 21s-7-5-7-11a4 4 0 0 1 7-3 4 4 0 0 1 7 3c0 6-7 11-7 11z"/>
</symbol>

<symbol id="butterfly" viewBox="0 0 24 24" fill="none" stroke="currentColor" stroke-width="1.5" stroke-linecap="round" stroke-linejoin="round">
  <path d="M12 6v15"/>
  <path d="M12 8c-1-3-4-5-7-4 0 4 2 7 5 7s2 4-1 6c-2 0-4-1-4-3"/>
  <path d="M12 8c1-3 4-5 7-4 0 4-2 7-5 7s-2 4 1 6c2 0 4-1 4-3"/>
  <circle cx="11" cy="6" r="1"/>
  <circle cx="13" cy="6" r="1"/>
</symbol>

<symbol id="eagle" viewBox="0 0 24 24" fill="none" stroke="currentColor" stroke-width="1.5" stroke-linecap="round" stroke-linejoin="round">
  <path d="M3 12l4-2 5 1 5-1 4 2"/>
  <path d="M3 12c2 1 4 3 5 5l4-3 4 3c1-2 3-4 5-5"/>
  <path d="M12 11v9"/>
  <circle cx="12" cy="9" r="1"/>
  <path d="M11 8l-1-2M13 8l1-2"/>
</symbol>

<symbol id="corn" viewBox="0 0 24 24" fill="none" stroke="currentColor" stroke-width="1.5" stroke-linecap="round" stroke-linejoin="round">
  <ellipse cx="12" cy="14" rx="4" ry="7"/>
  <path d="M9 8c-1-2-3-3-5-2 0 2 1 4 3 4"/>
  <path d="M15 8c1-2 3-3 5-2 0 2-1 4-3 4"/>
  <line x1="9.5" y1="11" x2="11.5" y2="13"/>
  <line x1="14.5" y1="11" x2="12.5" y2="13"/>
  <line x1="9.5" y1="15" x2="11.5" y2="17"/>
  <line x1="14.5" y1="15" x2="12.5" y2="17"/>
</symbol>

<symbol id="bison" viewBox="0 0 24 24" fill="none" stroke="currentColor" stroke-width="1.5" stroke-linecap="round" stroke-linejoin="round">
  <path d="M5 12c0-3 3-5 7-5s7 2 7 5"/>
  <path d="M5 12v3c0 .5.5 1 1 1h12c.5 0 1-.5 1-1v-3"/>
  <path d="M7 16v3M9 16v2M15 16v2M17 16v3"/>
  <path d="M8 8c-1-2-3-3-5-2 0 2 2 4 4 4"/>
  <path d="M16 8c1-2 3-3 5-2 0 2-2 4-4 4"/>
  <circle cx="10" cy="10" r=".4" fill="currentColor"/>
  <circle cx="14" cy="10" r=".4" fill="currentColor"/>
</symbol>

<symbol id="wind" viewBox="0 0 24 24" fill="none" stroke="currentColor" stroke-width="1.5" stroke-linecap="round" stroke-linejoin="round">
  <path d="M3 8h12c1 0 2-1 2-2s-1-2-2-2"/>
  <path d="M3 12h17c1 0 2 1 2 2s-1 2-2 2"/>
  <path d="M3 16h11c1 0 2 1 2 2s-1 2-2 2"/>
</symbol>

<symbol id="sunrise" viewBox="0 0 24 24" fill="none" stroke="currentColor" stroke-width="1.5" stroke-linecap="round" stroke-linejoin="round">
  <path d="M3 18h18"/>
  <path d="M6 14a6 6 0 0 1 12 0"/>
  <line x1="12" y1="3" x2="12" y2="6"/>
  <line x1="5" y1="8" x2="6.5" y2="9.5"/>
  <line x1="19" y1="8" x2="17.5" y2="9.5"/>
</symbol>

<symbol id="utensils" viewBox="0 0 24 24" fill="none" stroke="currentColor" stroke-width="1.5" stroke-linecap="round" stroke-linejoin="round">
  <path d="M7 3v8c0 1 1 2 2 2v7M7 3v6"/>
  <line x1="9" y1="3" x2="9" y2="9"/>
  <line x1="11" y1="3" x2="11" y2="9"/>
  <path d="M17 3l-2 7v3h2v8"/>
</symbol>

<symbol id="scroll" viewBox="0 0 24 24" fill="none" stroke="currentColor" stroke-width="1.5" stroke-linecap="round" stroke-linejoin="round">
  <path d="M5 5h13v12c0 2 2 3 3 3H7c-2 0-2-2-2-3z"/>
  <path d="M5 5c0-1.5-1-2-2-2-1.5 0-2 1.5-2 3 0 1 1 2 2 2"/>
  <line x1="9" y1="9" x2="14" y2="9"/>
  <line x1="9" y1="12" x2="14" y2="12"/>
  <line x1="9" y1="15" x2="13" y2="15"/>
</symbol>

<symbol id="credit-card" viewBox="0 0 24 24" fill="none" stroke="currentColor" stroke-width="1.5" stroke-linecap="round" stroke-linejoin="round">
  <rect x="3" y="6" width="18" height="13" rx="2"/>
  <line x1="3" y1="11" x2="21" y2="11"/>
  <line x1="7" y1="15" x2="9" y2="15"/>
  <line x1="11" y1="15" x2="13" y2="15"/>
</symbol>
</svg>
